
<svg width="343px" height="114px" viewBox="0 0 343 114" version="1.1" xmlns="http://www.w3.org/2000/svg" xmlns:xlink="http://www.w3.org/1999/xlink">
    <g id="Page-1" stroke="none" stroke-width="1" fill="none" fill-rule="evenodd">
        <path d="M223.501816,1.48054288 C245.479709,0.511162062 259.979104,0.0264716517 267,0.0264716517 C274.020896,0.0264716517 288.520291,0.511162065 310.498185,1.48054289 C328.675562,2.2822943 343,17.2524684 343,35.4475187 L343,76.888337 C343,94.912127 328.935095,109.804123 310.94069,110.832905 L267,113.345097 L267,113.345097 L223.05931,110.832905 C205.064905,109.804123 191,94.912127 191,76.888337 L191,35.4475196 C190.999999,17.2524687 205.324438,2.28229406 223.501816,1.48054288 Z" id="Rectangle" fill="#040373"></path>
        <path d="M235.9,30.010101 L280.1,30.010101 C285,30.010101 289,34.0505051 289,39 L289,37.989899 C289,33.040404 285,29 280.1,29 L235.9,29 C231,29 227,33.040404 227,37.989899 L227,39 C227,34.0505051 231,30.010101 235.9,30.010101 L235.9,30.010101 Z M289,49 L289,50 L307,32 L307,31 L289,49 L289,49 Z" id="shadow-top-copy" fill="#FFFFFF"></path>
        <path d="M280.1,83.989899 L235.9,83.989899 C231,83.989899 227,79.9494949 227,75 L227,76.010101 C227,80.959596 231,85 235.9,85 L280.1,85 C285,85 289,80.959596 289,76.010101 L289,75 C289,79.9494949 285,83.989899 280.1,83.989899 L280.1,83.989899 Z M289,65 L307,83 L307,82 L289,64 L289,65 L289,65 Z" id="shadow-bottom-copy" fill="#1A237E" opacity="0.2"></path>
        <path d="M307.181818,81.7411697 L289.140909,63.866242 L289.140909,74.8891141 C289.140909,79.7550666 285.131818,83.7272727 280.220682,83.7272727 L235.920227,83.7272727 C231.009091,83.7272727 227,79.7550666 227,74.8891141 L227,52.5454545 L307.181818,52.5454545 L307.181818,81.7411697 L307.181818,81.7411697 Z" id="bottom-copy" fill="#F5F5F5"></path>
        <path d="M307.181818,32.2525253 L289.140909,50.0707071 L289.140909,39.0828283 C289.140909,34.2323232 285.131818,30.2727273 280.220682,30.2727273 L235.920227,30.2727273 C231.009091,30.2727273 227,34.2323232 227,39.0828283 L227,57 L307.181818,57 L307.181818,32.2525253 L307.181818,32.2525253 Z" id="top-copy" fill="#E1E1E1"></path>
        <text id="Blue" font-family="OpenSans-SemiBold, Open Sans" font-size="90" font-weight="500" fill="#000000">
            <tspan x="-8" y="85">Blue</tspan>
        </text>
    </g>
</svg>